HIERARCHY
ROOT Hips
{
 OFFSET 0.000000 0.000000 0.000000
 CHANNELS 6 Xposition Yposition Zposition Yrotation Xrotation Zrotation
 JOINT Chest
 {
  OFFSET 0.000000 10.366939 -0.000175
  CHANNELS 3 Yrotation Xrotation Zrotation
  JOINT Chest2
  {
   OFFSET 0.000000 11.433790 0.000318
   CHANNELS 3 Yrotation Xrotation Zrotation
   JOINT Chest3
   {
    OFFSET 0.000000 10.331133 0.000000
    CHANNELS 3 Yrotation Xrotation Zrotation
    JOINT Chest4
    {
     OFFSET 0.000000 10.331133 0.000000
     CHANNELS 3 Yrotation Xrotation Zrotation
     JOINT Neck
     {
      OFFSET 0.000000 14.530095 0.000000
      CHANNELS 3 Yrotation Xrotation Zrotation
      JOINT Head
      {
       OFFSET 0.000000 9.616255 0.000757
       CHANNELS 3 Yrotation Xrotation Zrotation
       End Site
       {
        OFFSET 0.000000 18.398191 0.000395
       }
      }
     }
     JOINT RightCollar
     {
      OFFSET -3.159467 8.107572 0.000000
      CHANNELS 3 Yrotation Xrotation Zrotation
      JOINT RightShoulder
      {
       OFFSET -14.759419 0.000000 0.000000
       CHANNELS 3 Yrotation Xrotation Zrotation
       JOINT RightElbow
       {
        OFFSET 0.000000 -31.561777 0.000000
        CHANNELS 3 Yrotation Xrotation Zrotation
        JOINT RightWrist
        {
         OFFSET 0.000000 -25.811607 0.000000
         CHANNELS 3 Yrotation Xrotation Zrotation
         End Site
         {
          OFFSET 0.000000 -19.296333 0.000000
         }
        }
       }
      }
     }
     JOINT LeftCollar
     {
      OFFSET 3.159467 8.107572 0.000000
      CHANNELS 3 Yrotation Xrotation Zrotation
      JOINT LeftShoulder
      {
       OFFSET 14.759419 0.000000 0.000000
       CHANNELS 3 Yrotation Xrotation Zrotation
       JOINT LeftElbow
       {
        OFFSET 0.000000 -31.561777 0.000000
        CHANNELS 3 Yrotation Xrotation Zrotation
        JOINT LeftWrist
        {
         OFFSET 0.000000 -25.811607 0.000000
         CHANNELS 3 Yrotation Xrotation Zrotation
         End Site
         {
          OFFSET 0.000000 -19.296333 0.000000
         }
        }
       }
      }
     }
    }
   }
  }
 }
 JOINT RightHip
 {
  OFFSET -8.420485 0.000859 0.000088
  CHANNELS 3 Yrotation Xrotation Zrotation
  JOINT RightKnee
  {
   OFFSET 0.000000 -43.611855 -0.000083
   CHANNELS 3 Yrotation Xrotation Zrotation
   JOINT RightAnkle
   {
    OFFSET 0.000000 -42.630478 -0.000140
    CHANNELS 3 Yrotation Xrotation Zrotation
    JOINT RightToe
    {
     OFFSET 0.000000 -7.539428 17.119853
     CHANNELS 3 Yrotation Xrotation Zrotation
     End Site
     {
      OFFSET 0.000000 -1.595212 6.940629
     }
    }
   }
  }
 }
 JOINT LeftHip
 {
  OFFSET 8.420485 0.000859 0.000088
  CHANNELS 3 Yrotation Xrotation Zrotation
  JOINT LeftKnee
  {
   OFFSET 0.000000 -43.611855 -0.000083
   CHANNELS 3 Yrotation Xrotation Zrotation
   JOINT LeftAnkle
   {
    OFFSET 0.000000 -42.630478 -0.000140
    CHANNELS 3 Yrotation Xrotation Zrotation
    JOINT LeftToe
    {
     OFFSET 0.000000 -7.539428 17.119853
     CHANNELS 3 Yrotation Xrotation Zrotation
     End Site
     {
      OFFSET 0.000000 -1.595212 6.940629
     }
    }
   }
  }
 }
}
MOTION
Frames: 16
Frame Time: 0.008333
408.418047 46.861404 122.202832 -79.754585 -15.373468 0.885951 1.695549 12.358566 -0.171202 0.337117 5.457246 -0.595064 0.337117 5.457246 -0.595064 0.257975 4.092613 -0.448978 1.343456 11.687864 0.644077 2.296326 -14.479002 0.651705 0.223564 4.094289 10.989852 2.530715 -24.607946 -24.995609 68.012486 -48.706182 -35.946350 20.270275 -8.874873 9.432517 0.815214 2.114125 -8.560695 -0.161787 -27.026254 12.851223 -52.260577 -33.119625 15.645321 -22.740807 1.266553 -14.119606 -9.587844 -78.058567 -11.749361 174.495877 67.186404 168.233139 2.644279 -19.365502 1.466768 -0.672007 0.722893 -0.285146 -18.292343 -79.351282 44.446116 -147.461960 63.139565 -148.820745 -0.087040 -14.070381 -1.297055 -0.098273 -1.242441 -0.070441
408.412475 46.861493 122.201492 -79.762209 -15.344679 0.888030 1.692925 12.373995 -0.169778 0.334306 5.459892 -0.596441 0.334306 5.459892 -0.596441 0.255882 4.094599 -0.449986 1.307036 11.690620 0.642890 2.226987 -14.474143 0.665273 0.229611 4.088723 10.988195 2.527838 -24.593926 -24.990539 68.047164 -48.760897 -36.015385 20.274033 -8.851673 9.442410 0.818477 2.115507 -8.557832 -0.165541 -27.030788 12.873128 -52.228135 -33.180569 15.620986 -22.778474 1.269543 -14.116503 -9.616154 -78.086863 -11.708788 174.506968 67.183301 168.241189 2.626209 -19.369367 1.469111 -0.667529 0.721837 -0.283903 -18.368347 -79.366009 44.533301 -147.431490 63.126723 -148.798187 -0.079792 -14.082248 -1.295645 -0.097832 -1.239589 -0.069730
408.410177 46.860114 122.200823 -79.758463 -15.310342 0.888994 1.678026 12.374902 -0.173146 0.330159 5.462373 -0.597204 0.330159 5.462373 -0.597204 0.252784 4.096464 -0.450522 1.266741 11.691507 0.641030 2.150528 -14.472757 0.679206 0.235919 4.079959 10.990539 2.532857 -24.573056 -24.994336 68.077616 -48.821618 -36.086667 20.272772 -8.830249 9.465788 0.828346 2.119034 -8.554627 -0.171647 -27.039210 12.895836 -52.258101 -33.165762 15.621608 -22.738927 1.210864 -14.082730 -9.657037 -78.124907 -11.668521 174.515747 67.180584 168.242711 2.615747 -19.367132 1.475752 -0.667492 0.719001 -0.286528 -18.490569 -79.393829 44.653731 -147.412906 63.117358 -148.791057 -0.071336 -14.074633 -1.296126 -0.104911 -1.247522 -0.067725
408.407804 46.858739 122.198358 -79.755184 -15.271323 0.890394 1.658318 12.378292 -0.175485 0.324496 5.464059 -0.598200 0.324496 5.464059 -0.598200 0.248550 4.097733 -0.451218 1.231339 11.689789 0.638574 2.083729 -14.476150 0.689841 0.257442 4.076160 10.987029 2.543449 -24.564269 -24.998600 68.095995 -48.872233 -36.140748 20.269265 -8.815862 9.478257 0.844104 2.119251 -8.554029 -0.179683 -27.040828 12.921966 -52.252927 -33.173662 15.653132 -22.732863 1.155400 -14.093734 -9.692320 -78.161405 -11.628138 174.534466 67.180902 168.258941 2.598572 -19.376396 1.477583 -0.656770 0.724739 -0.283146 -18.602772 -79.420249 44.766501 -147.390680 63.112675 -148.779531 -0.065810 -14.081921 -1.299376 -0.110394 -1.243201 -0.065090
408.405223 46.858109 122.195933 -79.760560 -15.242616 0.893433 1.645988 12.384443 -0.177329 0.319485 5.466398 -0.598550 0.319485 5.466398 -0.598550 0.244800 4.099492 -0.451437 1.191386 11.684316 0.635414 2.008532 -14.486522 0.701060 0.266959 4.071589 10.980867 2.555045 -24.554207 -24.997931 68.122600 -48.926906 -36.204119 20.269334 -8.794954 9.491612 0.862210 2.114287 -8.560826 -0.185553 -27.036473 12.943470 -52.265171 -33.181455 15.669230 -22.724598 1.110881 -14.087560 -9.718813 -78.189515 -11.594527 174.529324 67.180336 168.251842 2.603416 -19.382313 1.471976 -0.650466 0.729111 -0.282377 -18.665961 -79.439702 44.838920 -147.373355 63.105862 -148.770310 -0.052521 -14.092283 -1.303707 -0.121585 -1.239756 -0.061773
408.403424 46.858414 122.194982 -79.758000 -15.205464 0.899490 1.625218 12.389240 -0.184917 0.313616 5.468907 -0.598865 0.313616 5.468907 -0.598865 0.240407 4.101379 -0.451621 1.151922 11.673894 0.632472 1.934199 -14.506065 0.712439 0.280277 4.064716 10.974195 2.553549 -24.545638 -25.000825 68.151910 -48.986121 -36.258879 20.277490 -8.803254 9.504490 0.883015 2.112325 -8.569219 -0.199393 -27.033439 12.973906 -52.259436 -33.208336 15.694261 -22.730765 1.073130 -14.105321 -9.752260 -78.225535 -11.567213 174.540120 67.182943 168.257279 2.605641 -19.391816 1.466547 -0.647971 0.737268 -0.280378 -18.714325 -79.466049 44.887554 -147.350789 63.103104 -148.755287 -0.041207 -14.107553 -1.312486 -0.128318 -1.230965 -0.056596
408.401260 46.859066 122.192689 -79.762946 -15.180448 0.900526 1.616397 12.398159 -0.188177 0.310979 5.471422 -0.600035 0.310979 5.471422 -0.600035 0.238443 4.103268 -0.452476 1.106605 11.661315 0.630297 1.848311 -14.529633 0.727824 0.282325 4.060862 10.974884 2.563102 -24.538025 -25.005357 68.167953 -49.047073 -36.313412 20.279163 -8.794454 9.521118 0.885365 2.113334 -8.564725 -0.185679 -27.029681 12.983329 -52.257647 -33.248889 15.697860 -22.757385 1.064191 -14.099291 -9.793183 -78.249838 -11.518605 174.538615 67.183790 168.253042 2.603945 -19.392687 1.461147 -0.638095 0.738541 -0.277818 -18.780035 -79.484949 44.956354 -147.350027 63.098919 -148.758041 -0.021806 -14.111400 -1.320992 -0.143601 -1.234120 -0.057515
408.399172 46.861063 122.190971 -79.765559 -15.151984 0.903661 1.612818 12.408009 -0.188442 0.310213 5.474285 -0.601285 0.310213 5.474285 -0.601285 0.237883 4.105415 -0.453407 1.055077 11.647292 0.628484 1.750341 -14.555885 0.746609 0.276772 4.059913 10.978525 2.566076 -24.535645 -25.009920 68.204992 -49.106280 -36.374001 20.273803 -8.782386 9.533423 0.875681 2.112001 -8.561218 -0.167018 -27.030654 12.988398 -52.215926 -33.353164 15.674128 -22.832736 1.120287 -14.112959 -9.798691 -78.270700 -11.511576 174.542922 67.190561 168.262635 2.593454 -19.403351 1.459001 -0.631566 0.748910 -0.276054 -18.842341 -79.505193 45.020480 -147.342093 63.095921 -148.755504 -0.004256 -14.115290 -1.331184 -0.156233 -1.236594 -0.057628
408.396864 46.862317 122.189387 -79.765130 -15.133229 0.903627 1.604329 12.423444 -0.189755 0.307272 5.478854 -0.601576 0.307272 5.478854 -0.601576 0.235686 4.108845 -0.453600 1.008684 11.628729 0.628480 1.661431 -14.590532 0.766617 0.278074 4.055510 10.980105 2.567030 -24.541028 -25.014135 68.231029 -49.165346 -36.427531 20.274561 -8.773400 9.554982 0.870706 2.100335 -8.557480 -0.141760 -27.026126 12.989804 -52.256275 -33.341349 15.689471 -22.813487 1.080326 -14.079174 -9.833006 -78.291746 -11.479316 174.538821 67.189562 168.257268 2.598356 -19.393907 1.448020 -0.624928 0.741424 -0.271289 -18.923860 -79.515977 45.102832 -147.330566 63.090550 -148.752309 0.007640 -14.113532 -1.340635 -0.164948 -1.243885 -0.057538
408.394709 46.863262 122.186722 -79.774144 -15.107824 0.907650 1.604587 12.433586 -0.190147 0.305822 5.481377 -0.602878 0.305822 5.481377 -0.602878 0.234613 4.110737 -0.454563 0.962265 11.615119 0.627844 1.572706 -14.615948 0.785495 0.278544 4.056871 10.981674 2.563982 -24.538042 -25.019109 68.256518 -49.232990 -36.479585 20.276678 -8.767910 9.563222 0.861142 2.094194 -8.558247 -0.124044 -27.023200 13.001791 -52.217753 -33.392771 15.686689 -22.875859 1.075523 -14.087233 -9.851308 -78.316943 -11.446190 174.558492 67.192207 168.276452 2.580600 -19.389476 1.449692 -0.615247 0.739090 -0.268779 -19.006560 -79.526058 45.198156 -147.318508 63.088439 -148.752553 0.011574 -14.122711 -1.350395 -0.169502 -1.243157 -0.056944
408.393884 46.863463 122.185669 -79.770360 -15.081771 0.915218 1.591763 12.439830 -0.200532 0.303944 5.483392 -0.604162 0.303944 5.483392 -0.604162 0.233219 4.112250 -0.455510 0.917390 11.600723 0.629008 1.486144 -14.642802 0.807168 0.275867 4.055038 10.981523 2.551893 -24.531873 -25.008486 68.290690 -49.290526 -36.535958 20.286383 -8.766400 9.570233 0.852649 2.092971 -8.560958 -0.109202 -27.029444 13.014804 -52.233692 -33.396611 15.692521 -22.872300 1.044844 -14.077735 -9.848081 -78.346337 -11.454770 174.554564 67.190568 168.270596 2.582036 -19.389033 1.444669 -0.610938 0.739334 -0.266591 -19.045739 -79.543044 45.238253 -147.302608 63.089292 -148.745750 0.013132 -14.130882 -1.360679 -0.171083 -1.238325 -0.054112
408.391329 46.864268 122.183642 -79.776320 -15.055991 0.921956 1.592767 12.450775 -0.205631 0.301751 5.485005 -0.606776 0.301751 5.485005 -0.606776 0.231601 4.113460 -0.457449 0.872053 11.586509 0.631145 1.398250 -14.669296 0.830935 0.270354 4.051044 10.982674 2.546858 -24.531440 -25.001081 68.322926 -49.349009 -36.583480 20.291912 -8.767148 9.581813 0.851310 2.084790 -8.559751 -0.103090 -27.030193 13.020827 -52.230792 -33.402738 15.710351 -22.886823 1.014375 -14.079134 -9.864647 -78.372236 -11.429520 174.550838 67.190937 168.259649 2.590624 -19.392243 1.442904 -0.610366 0.742826 -0.266918 -19.104189 -79.555603 45.305944 -147.283297 63.085620 -148.736367 0.022191 -14.140080 -1.373628 -0.174862 -1.236096 -0.053262
408.389501 46.865374 122.184181 -79.772459 -15.037221 0.929679 1.577672 12.458433 -0.216976 0.300063 5.488125 -0.608260 0.300063 5.488125 -0.608260 0.230352 4.115802 -0.458547 0.828369 11.572019 0.632142 1.314004 -14.696264 0.851817 0.268332 4.046056 10.979419 2.527721 -24.528115 -24.985535 68.352307 -49.405538 -36.625850 20.303852 -8.775982 9.590870 0.849378 2.076125 -8.557887 -0.100163 -27.032557 13.028604 -52.229075 -33.407909 15.697646 -22.897229 0.998560 -14.050468 -9.858452 -78.394063 -11.438757 174.560594 67.189898 168.266384 2.570467 -19.389312 1.446912 -0.606521 0.741098 -0.265187 -19.172349 -79.564155 45.366961 -147.276539 63.085323 -148.747214 0.035850 -14.134009 -1.381061 -0.186627 -1.244246 -0.056999
408.388715 46.866008 122.182472 -79.776712 -15.009599 0.936512 1.571178 12.461294 -0.221347 0.297783 5.490458 -0.610399 0.297783 5.490458 -0.610399 0.228665 4.117552 -0.460131 0.788521 11.557690 0.631964 1.237615 -14.722898 0.868793 0.262210 4.042069 10.970985 2.524944 -24.522423 -24.972606 68.379637 -49.457140 -36.664757 20.312032 -8.779905 9.594706 0.855578 2.067342 -8.559084 -0.109771 -27.033968 13.036787 -52.188040 -33.426398 15.700109 -22.938006 0.975037 -14.055634 -9.857560 -78.423242 -11.437044 174.570365 67.193074 168.276816 2.581635 -19.385236 1.438293 -0.601074 0.740876 -0.262738 -19.248749 -79.582151 45.448223 -147.257492 63.083418 -148.736917 0.039198 -14.127030 -1.394465 -0.184235 -1.249567 -0.056656
408.387932 46.866376 122.181273 -79.779864 -14.989645 0.946943 1.559862 12.462615 -0.233340 0.295932 5.490280 -0.613618 0.295932 5.490280 -0.613618 0.227307 4.117419 -0.462527 0.749364 11.547117 0.636272 1.160579 -14.742553 0.894113 0.264417 4.046274 10.972712 2.517069 -24.515170 -24.965102 68.397702 -49.504429 -36.694092 20.331752 -8.786892 9.598670 0.856742 2.067238 -8.556429 -0.115699 -27.034579 13.056425 -52.188970 -33.390784 15.690455 -22.916657 0.921114 -14.025137 -9.843890 -78.446299 -11.451552 174.547739 67.191073 168.256419 2.574904 -19.387634 1.430940 -0.592004 0.744375 -0.261072 -19.277387 -79.592348 45.477212 -147.247623 63.085979 -148.738110 0.049579 -14.124431 -1.398876 -0.192670 -1.250784 -0.063451
408.384381 46.868268 122.181082 -79.774657 -14.974024 0.955351 1.545799 12.472738 -0.242643 0.293535 5.491338 -0.617097 0.293535 5.491338 -0.617097 0.225542 4.118214 -0.465112 0.712130 11.536592 0.640647 1.087189 -14.762092 0.918738 0.263692 4.041032 10.974500 2.510574 -24.507378 -24.954367 68.412025 -49.542707 -36.718651 20.346123 -8.793533 9.600742 0.854169 2.062560 -8.551937 -0.120622 -27.036492 13.078531 -52.151960 -33.389895 15.679570 -22.941484 0.885987 -14.015959 -9.830466 -78.459390 -11.476339 174.539568 67.189683 168.247465 2.568498 -19.400942 1.434172 -0.592665 0.752032 -0.264629 -19.300249 -79.597620 45.497096 -147.221195 63.083047 -148.721876 0.051651 -14.123133 -1.402408 -0.187310 -1.251344 -0.066922
